<?xml version="1.0" standalone="no"?>
<!DOCTYPE svg PUBLIC "-//W3C//DTD SVG 20010904//EN"
 "http://www.w3.org/TR/2001/REC-SVG-20010904/DTD/svg10.dtd">
<svg version="1.0" xmlns="http://www.w3.org/2000/svg"
 width="700.000000pt" height="700.000000pt" viewBox="0 0 700.000000 700.000000"
 preserveAspectRatio="xMidYMid meet">
<metadata>
Created by potrace 1.14, written by Peter Selinger 2001-2017
</metadata>
<g transform="translate(0.000000,700.000000) scale(0.100000,-0.100000)"
fill="#000000" stroke="none">
<path d="M1271 6812 c-75 -329 -88 -384 -121 -522 -17 -74 -33 -144 -36 -155
-3 -16 -40 -179 -58 -255 -41 -170 -99 -421 -102 -440 -3 -14 -20 -90 -39
-170 -59 -250 -97 -414 -100 -430 -2 -8 -12 -54 -24 -102 -11 -48 -23 -98 -25
-110 -3 -13 -16 -72 -30 -133 -15 -60 -33 -141 -42 -180 -8 -38 -21 -95 -29
-125 -8 -30 -16 -66 -19 -80 -7 -40 -113 -495 -151 -652 -8 -35 -17 -72 -19
-83 -6 -25 -48 -211 -121 -525 -31 -135 -58 -252 -60 -260 -2 -8 -17 -76 -35
-150 -41 -175 -39 -167 -50 -223 -5 -27 -12 -52 -14 -56 -3 -4 -8 -23 -11 -42
-3 -19 -11 -52 -17 -74 -5 -22 -12 -51 -15 -65 -2 -14 -8 -41 -13 -60 -5 -19
-11 -46 -13 -60 -3 -14 -10 -43 -16 -65 -6 -22 -29 -121 -52 -220 -22 -99 -42
-187 -44 -195 -2 -8 -6 -26 -9 -40 -7 -25 -5 -25 136 -58 79 -18 150 -35 158
-37 8 -2 54 -12 102 -24 48 -11 99 -23 113 -25 14 -3 33 -7 43 -10 9 -3 28 -7
42 -10 14 -2 63 -13 110 -25 114 -27 249 -59 280 -65 49 -10 72 -15 93 -22 12
-4 31 -8 42 -10 11 -1 47 -9 80 -17 33 -9 71 -18 85 -21 14 -2 66 -14 115 -26
50 -12 117 -27 150 -35 62 -13 357 -82 693 -160 199 -46 204 -47 287 -66 28
-6 68 -15 90 -20 22 -5 51 -12 65 -14 14 -3 31 -8 38 -10 14 -5 443 -104 482
-111 14 -3 59 -14 100 -24 41 -10 86 -21 100 -23 14 -3 93 -21 175 -41 83 -19
240 -56 350 -81 110 -25 236 -54 280 -65 44 -10 91 -21 105 -24 14 -2 75 -16
135 -31 61 -15 118 -28 128 -30 20 -5 296 -68 412 -95 44 -11 170 -40 280 -65
110 -26 209 -49 220 -51 11 -3 31 -7 44 -10 13 -3 51 -11 85 -19 33 -8 61 -13
62 -12 1 2 98 424 109 475 2 10 11 49 20 87 22 91 19 80 54 230 16 72 53 229
81 350 28 121 54 231 56 244 3 14 18 79 34 145 25 104 39 162 55 236 2 8 9 38
15 65 6 28 13 59 16 70 2 11 11 49 19 85 9 36 18 75 20 86 3 12 19 37 37 55
60 64 197 240 254 327 31 48 65 99 75 114 10 14 52 95 93 180 81 163 160 389
195 551 21 98 26 125 37 227 4 30 8 69 10 85 5 45 5 345 0 385 -2 19 -8 64
-11 100 -4 36 -15 108 -26 160 -16 84 -30 137 -71 284 -12 41 -5 83 49 306 13
58 27 116 29 130 3 14 16 70 29 125 13 55 47 199 74 320 28 121 53 229 56 241
4 19 -4 23 -98 43 -56 13 -158 36 -227 53 -69 16 -132 31 -140 33 -8 2 -76 17
-150 35 -74 17 -146 33 -160 36 -27 6 -245 56 -349 81 -36 8 -72 16 -80 18
-179 36 -284 70 -400 129 -150 76 -263 124 -420 176 -163 55 -389 110 -511
125 -25 3 -74 10 -110 15 -111 15 -259 23 -415 22 -167 -1 -139 -6 -675 119
-168 39 -314 73 -325 75 -22 4 -55 12 -82 18 -48 12 -680 158 -693 161 -8 2
-125 29 -260 60 -354 82 -542 125 -565 130 -19 4 -24 -10 -64 -183z"/>
</g>
</svg>
